<svg xmlns="http://www.w3.org/2000/svg" viewBox="357.5 -15.5 504.0 376.0"><path fill-rule="evenodd" fill="#1f74ec" d="M512.0 11.5L511.0 12.5L498.0 13.5L495.0 15.5L488.0 16.5L477.0 20.5L461.0 28.5L443.0 40.5L434.0 48.5L429.0 51.5L426.5 54.0L423.5 60.0L423.5 83.0L424.5 84.0L425.5 92.0L428.5 101.0L431.5 106.0L431.5 108.0L433.5 110.0L435.5 115.0L438.5 118.0L439.5 121.0L452.0 132.5L459.0 137.5L473.0 144.5L476.0 144.5L483.0 147.5L487.0 147.5L491.0 149.5L495.5 154.0L496.5 157.0L496.5 193.0L495.5 194.0L495.5 197.0L490.0 203.5L471.0 213.5L461.5 224.0L457.5 232.0L456.5 240.0L455.5 241.0L455.0 274.5L392.0 274.5L385.5 280.0L384.5 282.0L384.5 289.0L388.0 293.5L393.0 295.5L613.0 295.5L614.0 294.5L617.0 294.5L620.5 291.0L622.5 287.0L621.5 280.0L617.0 275.5L614.0 274.5L545.0 274.5L544.5 259.0L549.5 242.0L556.5 232.0L567.0 223.5L569.0 223.5L575.0 219.5L583.0 218.5L584.0 217.5L589.0 217.5L590.0 216.5L592.0 217.5L619.0 217.5L620.0 216.5L629.0 216.5L633.5 214.0L636.5 208.0L634.5 201.0L630.0 197.5L592.0 196.5L591.0 197.5L580.0 197.5L567.0 201.5L550.0 211.5L541.5 221.0L539.5 222.0L533.5 231.0L532.5 235.0L530.5 237.0L525.5 255.0L525.0 274.5L475.5 274.0L474.5 271.0L474.5 264.0L475.5 263.0L474.5 262.0L474.5 255.0L475.5 254.0L474.5 253.0L474.5 248.0L475.5 247.0L475.5 240.0L477.5 235.0L479.5 232.0L485.0 227.5L488.0 225.5L490.0 225.5L492.0 223.5L496.0 222.5L505.0 215.5L511.5 208.0L515.5 198.0L515.5 152.0L512.5 144.0L509.5 140.0L501.0 132.5L495.0 129.5L481.0 126.5L469.0 120.5L466.0 117.5L464.0 117.5L463.5 116.0L456.5 110.0L450.5 102.0L447.5 96.0L447.5 94.0L452.0 91.5L456.5 87.0L458.5 83.0L458.5 77.0L454.0 71.5L452.0 70.5L444.0 70.5L442.5 69.0L442.5 67.0L445.0 63.5L450.0 60.5L454.0 56.5L475.0 43.5L488.0 37.5L505.0 32.5L510.0 32.5L511.0 31.5L537.0 31.5L538.0 32.5L543.0 32.5L547.0 34.5L550.0 34.5L562.0 38.5L571.0 43.5L576.0 43.5L578.0 42.5L587.0 34.5L592.0 31.5L603.0 31.5L608.5 36.0L610.5 40.0L609.5 50.0L607.0 53.5L598.0 58.5L593.5 63.0L592.5 66.0L593.5 74.0L596.5 78.0L599.5 80.0L616.5 102.0L623.5 109.0L635.5 125.0L640.5 130.0L659.5 156.0L667.5 171.0L669.5 173.0L678.5 193.0L678.5 196.0L681.5 203.0L681.5 206.0L684.5 215.0L684.5 219.0L685.5 220.0L686.5 234.0L687.5 235.0L687.5 260.0L686.5 261.0L685.5 273.0L684.0 274.5L661.0 274.5L656.0 276.5L652.5 281.0L651.5 287.0L653.5 291.0L657.0 294.5L660.0 295.5L812.0 295.5L817.0 293.5L820.5 289.0L820.5 282.0L818.5 278.0L815.0 275.5L812.0 275.5L811.0 274.5L740.5 274.0L750.0 268.5L753.0 265.5L774.0 251.5L788.0 239.5L803.5 223.0L805.5 222.0L820.5 202.0L827.5 189.0L828.5 184.0L830.5 181.0L832.5 175.0L833.5 164.0L834.5 163.0L834.5 150.0L833.5 149.0L832.5 137.0L827.5 123.0L821.5 112.0L806.0 95.5L801.0 91.5L792.0 87.5L788.0 84.5L774.0 80.5L769.0 80.5L768.0 79.5L750.0 79.5L749.0 80.5L745.0 80.5L744.0 81.5L734.0 83.5L721.0 89.5L710.0 96.5L692.5 114.0L683.5 126.0L674.5 142.0L673.0 142.5L658.5 122.0L616.5 71.0L622.5 64.0L624.5 63.0L628.5 55.0L629.5 47.0L630.5 46.0L629.5 36.0L627.5 30.0L624.5 25.0L617.0 17.5L605.0 11.5L590.0 11.5L584.0 14.5L582.0 14.5L577.0 17.5L573.0 21.5L571.0 21.5L557.0 15.5L545.0 13.5L544.0 12.5L539.0 12.5L538.0 11.5L513.0 11.5ZM508.0 53.5L505.0 54.5L499.5 60.0L497.5 66.0L499.5 73.0L503.0 76.5L507.0 78.5L516.0 77.5L520.5 74.0L522.5 70.0L522.5 62.0L521.5 60.0L517.0 55.5L513.0 53.5L509.0 53.5ZM752.0 99.5L745.0 101.5L745.5 104.0L773.0 135.5L774.0 135.5L795.5 113.0L783.0 103.5L777.0 101.5L773.0 101.5L768.0 99.5L753.0 99.5ZM730.0 107.5L720.0 113.5L719.5 115.0L708.5 125.0L706.5 129.0L740.0 168.5L742.0 168.5L752.5 157.0L759.5 151.0L763.5 145.0L731.0 107.5ZM805.0 123.5L803.0 124.5L782.5 146.0L803.5 172.0L810.0 178.5L811.5 177.0L814.5 167.0L814.5 159.0L815.5 158.0L813.5 140.0L811.5 137.0L810.5 132.0L805.5 124.0ZM698.0 140.5L695.5 143.0L690.5 153.0L688.5 155.0L685.5 161.0L685.5 163.0L691.5 174.0L691.5 176.0L697.5 189.0L702.5 208.0L705.0 207.5L731.5 179.0L698.5 141.0ZM773.0 156.5L770.5 158.0L750.5 180.0L762.5 195.0L770.5 203.0L779.5 215.0L782.0 216.5L785.0 215.5L799.5 199.0L803.5 192.0L773.5 157.0ZM739.0 190.5L705.5 226.0L706.5 228.0L706.0 270.5L719.0 264.5L729.0 257.5L734.0 255.5L759.0 238.5L771.5 227.0L771.5 225.0L747.5 198.0L743.5 192.0L740.0 190.5ZM454.0 313.5L447.5 318.0L445.5 323.0L447.5 330.0L453.0 333.5L525.0 333.5L528.5 331.0L531.5 325.0L530.5 319.0L526.0 314.5L523.0 313.5L455.0 313.5ZM556.0 313.5L553.0 314.5L548.5 320.0L548.5 328.0L550.5 331.0L554.0 333.5L673.0 333.5L679.5 328.0L679.5 325.0L680.5 324.0L678.5 318.0L673.0 313.5L557.0 313.5ZM704.0 313.5L699.0 316.5L696.5 321.0L696.5 327.0L697.5 329.0L703.0 333.5L752.0 333.5L754.0 332.5L758.5 327.0L758.5 320.0L757.5 318.0L751.0 313.5L705.0 313.5Z"></path></svg>